<?xml version="1.0" encoding="utf-8"?>
<!-- Generator: Adobe Illustrator 27.0.1, SVG Export Plug-In . SVG Version: 6.00 Build 0)  -->
<svg version="1.1" xmlns="http://www.w3.org/2000/svg" xmlns:xlink="http://www.w3.org/1999/xlink" x="0px" y="0px"
	 viewBox="0 0 612 792" style="enable-background:new 0 0 612 792;" xml:space="preserve">
<style type="text/css">
	.st0{stroke:#000000;stroke-width:1.6734;}
	.st1{fill:none;stroke:#FFFFFF;stroke-width:1.7452;}
	.st2{fill:none;stroke:#FFFFFF;stroke-width:1.5061;}
	.st3{fill:none;stroke:#000000;stroke-width:1.3315;}
	.st4{fill:#010101;}
	.st5{fill:#231F20;}
	.st6{fill:#BF2F38;}
	.st7{fill:#FFFFFF;}
</style>
<g id="Layer_1">
</g>
<g id="Ace_Logo">
	<g>
		<g>
			<polygon class="st0" points="58.35,406.72 135.12,329.98 186.3,381.14 179.91,387.54 135.12,342.77 64.75,413.12 			"/>
			<g>
				<line class="st1" x1="137.26" y1="338.95" x2="142.31" y2="333.91"/>
				<line class="st1" x1="143.08" y1="344.87" x2="148.12" y2="339.83"/>
				<line class="st1" x1="148.95" y1="350.74" x2="153.99" y2="345.7"/>
				<line class="st1" x1="154.98" y1="356.44" x2="160.03" y2="351.4"/>
				<line class="st1" x1="160.8" y1="362.36" x2="165.84" y2="357.32"/>
				<line class="st1" x1="166.72" y1="368.18" x2="171.76" y2="363.13"/>
				<line class="st1" x1="172.7" y1="373.93" x2="177.75" y2="368.89"/>
				<line class="st1" x1="178.4" y1="379.96" x2="183.45" y2="374.92"/>
			</g>
			<line class="st1" x1="91.68" y1="380.24" x2="86.64" y2="375.19"/>
			<line class="st1" x1="97.61" y1="374.43" x2="92.56" y2="369.38"/>
			<line class="st1" x1="103.48" y1="368.56" x2="98.43" y2="363.51"/>
			<line class="st1" x1="109.18" y1="362.53" x2="104.14" y2="357.49"/>
			<line class="st1" x1="115.11" y1="356.72" x2="110.06" y2="351.67"/>
			<line class="st1" x1="120.92" y1="350.79" x2="115.88" y2="345.75"/>
			<line class="st1" x1="126.68" y1="344.82" x2="121.63" y2="339.77"/>
			<line class="st1" x1="132.71" y1="339.12" x2="127.67" y2="334.07"/>
			<line class="st1" x1="81.16" y1="380.84" x2="86.1" y2="385.79"/>
			<line class="st1" x1="75.23" y1="386.65" x2="80.28" y2="391.61"/>
			<line class="st1" x1="69.36" y1="392.52" x2="74.32" y2="397.48"/>
			<line class="st1" x1="63.66" y1="398.55" x2="68.45" y2="403.35"/>
		</g>
		<g>
			<line class="st1" x1="92.63" y1="375.27" x2="87.59" y2="370.22"/>
			<line class="st1" x1="98.56" y1="369.46" x2="93.51" y2="364.41"/>
			<line class="st1" x1="104.42" y1="363.59" x2="99.38" y2="358.55"/>
			<line class="st1" x1="110.13" y1="357.56" x2="105.08" y2="352.52"/>
			<line class="st1" x1="116.05" y1="351.75" x2="111.01" y2="346.7"/>
			<line class="st1" x1="121.87" y1="345.83" x2="116.82" y2="340.78"/>
			<line class="st1" x1="127.63" y1="339.85" x2="122.58" y2="334.81"/>
			<path class="st1" d="M128.61,329.1"/>
			<path class="st1" d="M133.66,334.15"/>
			<line class="st1" x1="82.1" y1="375.87" x2="87.05" y2="380.82"/>
			<line class="st1" x1="76.18" y1="381.68" x2="81.22" y2="386.64"/>
			<line class="st1" x1="70.31" y1="387.55" x2="75.27" y2="392.51"/>
			<line class="st1" x1="64.6" y1="393.58" x2="69.4" y2="398.38"/>
		</g>
		<g>
			<line class="st1" x1="142" y1="340.13" x2="147.05" y2="335.09"/>
			<line class="st1" x1="147.81" y1="346.06" x2="152.86" y2="341.01"/>
			<line class="st1" x1="153.68" y1="351.92" x2="158.73" y2="346.88"/>
			<line class="st1" x1="159.72" y1="357.62" x2="164.76" y2="352.58"/>
			<line class="st1" x1="165.53" y1="363.55" x2="170.57" y2="358.5"/>
			<line class="st1" x1="171.45" y1="369.36" x2="176.5" y2="364.31"/>
			<line class="st1" x1="177.43" y1="375.12" x2="182.48" y2="370.07"/>
		</g>
	</g>
	<g>
		<path d="M75.46,438.64l-0.1-0.59c-0.08-0.43-0.29-0.79-0.61-1.1l-3.56-3.34l-0.9,5.03h-4.34l3.14-14.88h7.57l3.14,14.88H75.46z
			 M72.94,424l-1.7,8.93h3.28L72.94,424z"/>
		<path d="M89.07,428.38v-0.85c0-0.43-0.15-0.77-0.44-1.04l-2.92-2.69v12.5c0,0.35,0.19,0.63,0.57,0.85
			c0.34,0.2,0.74,0.28,1.22,0.28c0.44,0,0.82-0.1,1.11-0.28c0.3-0.18,0.46-0.47,0.46-0.85v-2.71h4.1c0,1.79,0,2.38,0.02,1.79
			c-0.02,0.77-0.11,1.36-0.29,1.77c-0.32,0.73-1.11,1.2-2.31,1.45c-0.63,0.12-1.54,0.2-2.78,0.2c-0.11,0-0.34,0-0.71,0
			c-0.36,0-0.67,0.02-0.88,0.02c-3.32,0-4.97-1-4.97-2.99v-8.81c0-1.16,0.34-2.01,1.03-2.56c0.55-0.45,1.47-0.71,2.72-0.81
			c0.25-0.02,1.18-0.04,2.8-0.04c2.12,0,3.54,0.2,4.31,0.59c0.71,0.37,1.05,0.94,1.05,1.71v2.48H89.07z"/>
		<path d="M94.69,438.64v-14.88h8.9v2.06h-7.68l2.69,2.65c0.19,0.18,0.3,0.28,0.32,0.35c0.04,0.06,0.06,0.2,0.06,0.45v0.73h4.27
			v1.95h-4.27v4.64h4.99v2.06H94.69z"/>
		<path d="M119.67,428.38v-0.85c0-0.43-0.15-0.77-0.44-1.04l-2.92-2.69v12.5c0,0.35,0.19,0.63,0.57,0.85
			c0.34,0.2,0.74,0.28,1.22,0.28c0.44,0,0.82-0.1,1.11-0.28c0.3-0.18,0.46-0.47,0.46-0.85v-2.71h4.1c0,1.79,0,2.38,0.02,1.79
			c-0.02,0.77-0.11,1.36-0.29,1.77c-0.32,0.73-1.11,1.2-2.31,1.45c-0.63,0.12-1.54,0.2-2.78,0.2c-0.11,0-0.34,0-0.71,0
			c-0.36,0-0.67,0.02-0.88,0.02c-3.32,0-4.97-1-4.97-2.99v-8.81c0-1.16,0.34-2.01,1.03-2.56c0.55-0.45,1.47-0.71,2.72-0.81
			c0.25-0.02,1.18-0.04,2.8-0.04c2.12,0,3.54,0.2,4.31,0.59c0.71,0.37,1.05,0.94,1.05,1.71v2.48H119.67z"/>
		<path d="M135.1,438.64l-0.1-0.59c-0.08-0.43-0.29-0.79-0.61-1.1l-3.56-3.34l-0.9,5.03h-4.34l3.14-14.88h7.57l3.14,14.88H135.1z
			 M132.59,424l-1.7,8.93h3.28L132.59,424z"/>
		<path d="M149.76,438.64c-0.34-0.63-0.51-1.26-0.51-1.89v-1.38c0-0.63-0.32-1.22-0.97-1.81l-2.82-2.58v7.67h-4.27v-14.88h5.81
			c3.33,0,5.35,0.43,6,1.28c0.36,0.47,0.53,1.16,0.53,2.06v1.49c0,1.02-0.36,1.85-1.11,2.48c-0.65,0.57-1.41,0.85-2.31,0.85
			c0.44,0,0.99,0.12,1.66,0.35c0.72,0.26,1.2,0.55,1.45,0.88c0.21,0.26,0.31,0.67,0.31,1.2v2.4c0,0.65,0.17,1.28,0.51,1.89H149.76z
			 M145.45,423.88v7h1.33c0.78,0,1.33-0.06,1.64-0.2c0.55-0.24,0.82-0.75,0.82-1.51v-1.26c0-0.35-0.17-0.67-0.51-1L145.45,423.88z"
			/>
		<path d="M159.7,438.64h-4.29v-14.88h6.86c2.42,0,3.96,0.47,4.67,1.42c0.36,0.51,0.55,1.18,0.55,2.01v2.42
			c0,1.63-0.67,2.71-2.02,3.24c-0.74,0.31-2,0.45-3.73,0.45h-2.04V438.64z M159.7,423.88v7.41h1.31c0.78,0,1.33-0.06,1.64-0.2
			c0.55-0.24,0.82-0.75,0.82-1.51v-1.47c0-0.47-0.17-0.83-0.51-1.16L159.7,423.88z"/>
		<path d="M168.96,438.64v-14.88h8.9v2.06h-7.68l2.69,2.65c0.19,0.18,0.3,0.28,0.32,0.35c0.04,0.06,0.06,0.2,0.06,0.45v0.73h4.27
			v1.95h-4.27v4.64h4.99v2.06H168.96z"/>
		<path d="M188.4,438.64L182.11,426l1.07,5.05v7.59h-3.09v-14.88h5.14l5.43,10.24v-10.24h2.97v14.88H188.4z"/>
		<path d="M200.35,425.81l2.44,2.3c0.4,0.37,0.59,0.83,0.59,1.34v9.18h-4.29v-12.82h-3.49v-2.06h11.3v2.06H200.35z"/>
		<path d="M217,438.64c-0.34-0.63-0.51-1.26-0.51-1.89v-1.38c0-0.63-0.32-1.22-0.97-1.81l-2.82-2.58v7.67h-4.27v-14.88h5.81
			c3.33,0,5.35,0.43,6,1.28c0.36,0.47,0.53,1.16,0.53,2.06v1.49c0,1.02-0.36,1.85-1.1,2.48c-0.65,0.57-1.41,0.85-2.31,0.85
			c0.44,0,0.99,0.12,1.66,0.35c0.72,0.26,1.2,0.55,1.45,0.88c0.21,0.26,0.3,0.67,0.3,1.2v2.4c0,0.65,0.17,1.28,0.51,1.89H217z
			 M212.7,423.88v7h1.33c0.78,0,1.33-0.06,1.64-0.2c0.55-0.24,0.82-0.75,0.82-1.51v-1.26c0-0.35-0.17-0.67-0.51-1L212.7,423.88z"/>
		<path d="M231.3,433.89v4.74h-4.12v-4.74l-4.4-10.13h4.13l2.04,4.46l-0.57,3.89l3.18-8.34h4.13L231.3,433.89z"/>
		<path d="M243.6,438.64v-14.88h4.29v14.88H243.6z"/>
		<path d="M258.35,438.64L252.07,426l1.07,5.05v7.59h-3.09v-14.88h5.14l5.43,10.24v-10.24h2.97v14.88H258.35z"/>
		<path d="M273.24,428.38v-0.85c0-0.43-0.15-0.77-0.44-1.04l-2.92-2.69v12.5c0,0.35,0.19,0.63,0.57,0.85
			c0.34,0.2,0.74,0.28,1.22,0.28c0.44,0,0.82-0.1,1.11-0.28c0.31-0.18,0.46-0.47,0.46-0.85v-2.71h4.1c0,1.79,0,2.38,0.02,1.79
			c-0.02,0.77-0.11,1.36-0.29,1.77c-0.32,0.73-1.11,1.2-2.31,1.45c-0.63,0.12-1.54,0.2-2.78,0.2c-0.11,0-0.34,0-0.71,0
			c-0.36,0-0.67,0.02-0.88,0.02c-3.32,0-4.97-1-4.97-2.99v-8.81c0-1.16,0.34-2.01,1.03-2.56c0.55-0.45,1.47-0.71,2.72-0.81
			c0.25-0.02,1.18-0.04,2.8-0.04c2.12,0,3.54,0.2,4.31,0.59c0.71,0.37,1.05,0.94,1.05,1.71v2.48H273.24z"/>
		<path d="M279.32,438.64v-3.17h3.73v3.17H279.32z"/>
	</g>
	<g>
		<g>
			<polygon class="st0" points="305.99,426.45 229.22,349.71 178.04,400.87 184.43,407.26 229.22,362.5 299.59,432.84 			"/>
			<g>
				<line class="st1" x1="227.08" y1="358.68" x2="222.03" y2="353.63"/>
				<line class="st1" x1="221.26" y1="364.6" x2="216.21" y2="359.55"/>
				<line class="st1" x1="215.39" y1="370.47" x2="210.34" y2="365.42"/>
				<line class="st1" x1="209.36" y1="376.17" x2="204.31" y2="371.12"/>
				<line class="st1" x1="203.54" y1="382.09" x2="198.5" y2="377.05"/>
				<line class="st1" x1="197.62" y1="387.9" x2="192.57" y2="382.86"/>
				<line class="st1" x1="191.64" y1="393.66" x2="186.59" y2="388.61"/>
				<line class="st1" x1="185.94" y1="399.69" x2="180.89" y2="394.65"/>
			</g>
			<line class="st1" x1="272.65" y1="399.96" x2="277.7" y2="394.92"/>
			<line class="st1" x1="266.73" y1="394.15" x2="271.78" y2="389.11"/>
			<line class="st1" x1="260.86" y1="388.29" x2="265.91" y2="383.24"/>
			<line class="st1" x1="255.16" y1="382.25" x2="260.2" y2="377.21"/>
			<line class="st1" x1="249.23" y1="376.44" x2="254.28" y2="371.4"/>
			<line class="st1" x1="243.42" y1="370.52" x2="248.46" y2="365.48"/>
			<line class="st1" x1="237.66" y1="364.55" x2="242.71" y2="359.5"/>
			<line class="st1" x1="231.63" y1="358.84" x2="236.67" y2="353.8"/>
			<line class="st1" x1="283.18" y1="400.57" x2="278.24" y2="405.51"/>
			<line class="st1" x1="289.11" y1="406.38" x2="284.06" y2="411.34"/>
			<line class="st1" x1="294.98" y1="412.25" x2="290.02" y2="417.21"/>
			<line class="st1" x1="300.68" y1="418.28" x2="295.88" y2="423.07"/>
		</g>
		<g>
			<line class="st1" x1="271.71" y1="395" x2="276.75" y2="389.95"/>
			<line class="st1" x1="265.78" y1="389.18" x2="270.83" y2="384.14"/>
			<line class="st1" x1="259.91" y1="383.32" x2="264.96" y2="378.27"/>
			<line class="st1" x1="254.21" y1="377.29" x2="259.25" y2="372.24"/>
			<line class="st1" x1="248.28" y1="371.47" x2="253.33" y2="366.43"/>
			<line class="st1" x1="242.47" y1="365.55" x2="247.52" y2="360.51"/>
			<line class="st1" x1="236.71" y1="359.58" x2="241.76" y2="354.53"/>
			<path class="st1" d="M235.73,348.83"/>
			<path class="st1" d="M230.68,353.87"/>
			<line class="st1" x1="282.24" y1="395.6" x2="277.29" y2="400.54"/>
			<line class="st1" x1="288.16" y1="401.41" x2="283.12" y2="406.37"/>
			<line class="st1" x1="294.03" y1="407.28" x2="289.07" y2="412.24"/>
			<line class="st1" x1="299.73" y1="413.31" x2="294.94" y2="418.1"/>
		</g>
		<g>
			<line class="st1" x1="222.34" y1="359.86" x2="217.29" y2="354.82"/>
			<line class="st1" x1="216.52" y1="365.78" x2="211.48" y2="360.74"/>
			<line class="st1" x1="210.66" y1="371.65" x2="205.61" y2="366.61"/>
			<line class="st1" x1="204.62" y1="377.35" x2="199.58" y2="372.31"/>
			<line class="st1" x1="198.81" y1="383.27" x2="193.76" y2="378.23"/>
			<line class="st1" x1="192.89" y1="389.09" x2="187.84" y2="384.04"/>
			<line class="st1" x1="186.91" y1="394.84" x2="181.86" y2="389.8"/>
		</g>
	</g>
	<g>
		<path d="M222.2,414.31h14.32v-24.74c0,0-1.99-2.46-7.3-2.46c-5.11,0-7.02,2.46-7.02,2.46V414.31z"/>
		<line class="st2" x1="237.17" y1="393.48" x2="221.55" y2="393.48"/>
		<line class="st2" x1="237.17" y1="390.02" x2="221.55" y2="390.02"/>
		<line class="st2" x1="237.17" y1="396.95" x2="221.55" y2="396.95"/>
		<line class="st2" x1="237.17" y1="400.42" x2="221.55" y2="400.42"/>
		<line class="st2" x1="237.17" y1="403.89" x2="221.55" y2="403.89"/>
		<line class="st2" x1="237.17" y1="407.35" x2="221.55" y2="407.35"/>
		<line class="st2" x1="237.17" y1="410.82" x2="221.55" y2="410.82"/>
		<path class="st3" d="M238.13,414.31c0-6.98,0-25.76,0-25.76s-2.83-3.31-8.88-3.31c-5.91,0-8.66,3.31-8.66,3.31s0,18.78,0,25.76"/>
		<rect x="219.41" y="415.44" width="19.89" height="1.63"/>
	</g>
	<g>
		<path d="M127.39,394.67h14.32v-24.74c0,0-1.99-2.46-7.3-2.46c-5.11,0-7.02,2.46-7.02,2.46V394.67z"/>
		<line class="st2" x1="142.36" y1="373.84" x2="126.74" y2="373.84"/>
		<line class="st2" x1="142.36" y1="370.38" x2="126.74" y2="370.38"/>
		<line class="st2" x1="142.36" y1="377.31" x2="126.74" y2="377.31"/>
		<line class="st2" x1="142.36" y1="380.78" x2="126.74" y2="380.78"/>
		<line class="st2" x1="142.36" y1="384.25" x2="126.74" y2="384.25"/>
		<line class="st2" x1="142.36" y1="387.72" x2="126.74" y2="387.72"/>
		<line class="st2" x1="142.36" y1="391.18" x2="126.74" y2="391.18"/>
		<path class="st3" d="M143.32,394.67c0-6.98,0-25.76,0-25.76s-2.83-3.31-8.88-3.31c-5.91,0-8.66,3.31-8.66,3.31s0,18.78,0,25.76"/>
		<rect x="124.61" y="395.81" width="19.89" height="1.63"/>
	</g>
</g>
<g id="NFC_Logo">
	<g id="member">
		<path class="st4" d="M226.05,494.7v-5.77l-2.57,5.77h-1.16l-2.55-5.77v5.77h-2.62v-8.86h3.63l2.11,4.81l2.13-4.81h3.63v8.86
			H226.05z"/>
		<path class="st4" d="M231.25,494.7v-8.86h7.44v1.99h-4.82v1.38h4.71v1.99h-4.71v1.5h4.82v1.99H231.25z"/>
		<path class="st4" d="M249.86,494.7v-5.77l-2.57,5.77h-1.16l-2.55-5.77v5.77h-2.62v-8.86h3.63l2.11,4.81l2.13-4.81h3.63v8.86
			H249.86z"/>
		<path class="st4" d="M255.06,494.7v-8.86h5.75c0.5,0,0.93,0.07,1.31,0.2c0.38,0.13,0.68,0.31,0.93,0.52
			c0.24,0.21,0.43,0.45,0.55,0.72c0.12,0.27,0.18,0.54,0.18,0.82c0,0.56-0.17,1.01-0.5,1.36c-0.33,0.35-0.75,0.57-1.23,0.67
			c0.27,0.04,0.53,0.12,0.76,0.24c0.23,0.12,0.44,0.28,0.61,0.48c0.17,0.2,0.31,0.42,0.41,0.66c0.1,0.25,0.15,0.51,0.15,0.78
			c0,0.32-0.06,0.62-0.18,0.92c-0.12,0.29-0.31,0.55-0.56,0.77c-0.25,0.22-0.56,0.4-0.94,0.53c-0.38,0.13-0.81,0.19-1.31,0.19
			H255.06z M260.22,489.24c0.26,0,0.48-0.07,0.65-0.21c0.17-0.14,0.25-0.32,0.25-0.54c0-0.21-0.08-0.39-0.25-0.53
			c-0.17-0.14-0.38-0.21-0.65-0.21h-2.54v1.48H260.22z M260.31,492.77c0.31,0,0.56-0.07,0.74-0.22s0.27-0.34,0.27-0.58
			c0-0.22-0.09-0.41-0.26-0.57c-0.17-0.15-0.42-0.23-0.75-0.23h-2.63v1.59H260.31z"/>
		<path class="st4" d="M266.16,494.7v-8.86h7.44v1.99h-4.82v1.38h4.71v1.99h-4.71v1.5h4.82v1.99H266.16z"/>
		<path class="st4" d="M281.54,494.7l-1.7-2.98h-1.34v2.98h-2.62v-8.86h5.08c0.56,0,1.06,0.08,1.5,0.23
			c0.44,0.16,0.81,0.37,1.11,0.63c0.3,0.27,0.53,0.58,0.68,0.94c0.16,0.36,0.24,0.74,0.24,1.15c0,0.39-0.06,0.73-0.18,1.03
			c-0.12,0.3-0.28,0.55-0.47,0.77c-0.19,0.22-0.41,0.4-0.65,0.54c-0.24,0.14-0.48,0.25-0.71,0.32l2.07,3.26H281.54z M280.57,489.73
			c0.34,0,0.64-0.08,0.89-0.25c0.25-0.16,0.37-0.4,0.37-0.71c0-0.3-0.12-0.53-0.37-0.7c-0.25-0.16-0.55-0.25-0.89-0.25h-2.07v1.9
			H280.57z"/>
	</g>
	<rect id="black_bar_bottom" x="217.31" y="476.54" class="st5" width="67.2" height="6.52"/>
	<rect id="black_bar_top" x="219.46" y="451.95" class="st5" width="63.2" height="9.66"/>
	<polygon id="siding" points="217.14,451.77 218.28,475.74 284.52,475.73 284.52,476.72 217.32,476.73 216.06,451.15 229.2,444.7 
		243.12,450.68 243.71,450.93 241.06,450.93 229.21,445.85 	"/>
	<polygon id="roof_2" points="234.52,447.12 233.19,446.58 237.03,444.7 251.14,450.69 251.64,450.93 249.02,450.93 237.04,445.86 	
		"/>
	<polygon id="roof_1" points="242.45,447.12 241.11,446.58 244.96,444.7 259.07,450.69 259.53,450.93 256.95,450.93 244.97,445.86 	
		"/>
	<g id="normal_letters">
		<g>
			<path class="st6" d="M220.05,474.1v-10.61h6.84l0.04,2.38h-4.14v1.69h3.75l-0.05,2.37h-3.69v4.15"/>
			<path class="st6" d="M233.43,473.99c-0.42-0.6-0.87-1.3-1.23-1.91c-0.36-0.62-0.65-1.16-0.89-1.64
				c-0.24-0.48-0.45-0.93-0.64-1.38c0.33-0.24,0.67-0.48,1.02-0.74c0.35-0.26,0.67-0.54,0.96-0.86c0.29-0.32,0.43-0.63,0.43-0.94
				c0-0.29-0.11-0.48-0.33-0.55c-0.22-0.07-0.54-0.11-0.97-0.11h-3.88l0.03-2.38h5.11c0.69,0,1.27,0.12,1.76,0.35
				c0.48,0.24,0.84,0.56,1.08,0.97c0.24,0.41,0.36,0.88,0.36,1.39c0,0.61-0.18,1.19-0.54,1.74c-0.36,0.55-0.93,1.08-1.73,1.59
				c0.45,0.85,0.89,1.59,1.31,2.21c0.42,0.62,1,1.38,1.73,2.26 M227.8,474.02v-10.55h2.77v10.55H227.8z"/>
			<path class="st6" d="M257.72,463.49v10.53h-2.77v-6.36h-0.02l-2.11,2.84l-2.08-2.84h-0.03v6.36h-2.77v-10.53h2.61l2.27,3.09
				l2.29-3.09H257.72z"/>
			<path class="st6" d="M265.88,463.49l0.03,2.38h-4.25v1.56h3.87l-0.05,2.37h-3.82v1.85h4.53l-0.03,2.37h-7.24v-10.53H265.88z"/>
			<path class="st6" d="M276.48,471.65h2.5c0.36,0,0.62-0.02,0.78-0.06c0.16-0.04,0.25-0.13,0.25-0.29c0-0.1-0.02-0.19-0.07-0.27
				c-0.05-0.08-0.13-0.18-0.23-0.29c-0.1-0.11-0.16-0.17-0.16-0.17l-1.85-2.11c-0.27-0.31-0.5-0.57-0.67-0.8
				c-0.17-0.23-0.32-0.49-0.45-0.79c-0.13-0.3-0.19-0.62-0.19-0.95c0-0.46,0.11-0.87,0.32-1.24c0.21-0.37,0.54-0.66,0.96-0.88
				c0.43-0.21,0.95-0.32,1.56-0.32h2.97l0.64,2.38h-2.33c-0.35,0-0.61,0.02-0.77,0.06c-0.16,0.04-0.24,0.14-0.24,0.3
				c0,0.1,0.02,0.19,0.07,0.27s0.17,0.23,0.38,0.45l1.93,2.14c0.4,0.43,0.71,0.83,0.94,1.21c0.23,0.38,0.35,0.82,0.35,1.33
				c-0.01,0.4-0.08,0.75-0.22,1.05c-0.14,0.3-0.34,0.55-0.59,0.75c-0.26,0.2-0.55,0.35-0.9,0.44c-0.34,0.1-0.72,0.15-1.13,0.15
				h-3.22L276.48,471.65z"/>
		</g>
	</g>
	<g id="National">
		<path class="st7" d="M220.9,460.41v-7.39h1.03l5.69,6.63v-6.63h0.79v7.39h-1.08l-5.64-6.63v6.63H220.9z"/>
		<path class="st7" d="M229.46,460.41l3.75-7.39h0.93l3.71,7.39h-0.82l-1.14-2.28h-4.45l-1.15,2.28H229.46z M231.81,457.41h3.73
			l-1.86-3.78L231.81,457.41z"/>
		<path class="st7" d="M240.24,460.41v-6.71h-3.14v-0.68h7.09v0.68h-3.14v6.71H240.24z"/>
		<path class="st7" d="M245.23,460.41v-7.39h0.81v7.39H245.23z"/>
		<path class="st7" d="M256.17,456.72c0,1.21-0.38,2.16-1.14,2.85c-0.76,0.69-1.81,1.04-3.13,1.04c-1.33,0-2.38-0.35-3.13-1.04
			c-0.76-0.69-1.14-1.64-1.14-2.85c0-1.21,0.38-2.16,1.14-2.85c0.76-0.69,1.8-1.04,3.13-1.04c1.33,0,2.37,0.35,3.13,1.04
			C255.79,454.55,256.17,455.51,256.17,456.72z M251.89,459.89c1.07,0,1.92-0.28,2.53-0.84c0.61-0.56,0.92-1.34,0.92-2.33
			c0-0.99-0.31-1.77-0.92-2.33c-0.61-0.56-1.45-0.84-2.53-0.84c-1.08,0-1.92,0.28-2.53,0.84c-0.61,0.56-0.92,1.34-0.92,2.33
			c0,0.99,0.31,1.77,0.92,2.33C249.97,459.61,250.81,459.89,251.89,459.89z"/>
		<path class="st7" d="M257.68,460.41v-7.39h1.03l5.69,6.63v-6.63h0.79v7.39h-1.08l-5.64-6.63v6.63H257.68z"/>
		<path class="st7" d="M266.25,460.41l3.75-7.39h0.93l3.71,7.39h-0.82l-1.14-2.28h-4.45l-1.15,2.28H266.25z M268.59,457.41h3.73
			l-1.86-3.78L268.59,457.41z"/>
		<path class="st7" d="M275.7,460.41v-7.39h0.81v6.7h5.11v0.69H275.7z"/>
	</g>
	<g id="Council">
		<path class="st7" d="M252.61,478.71c-0.1-0.39-0.32-0.69-0.64-0.9c-0.33-0.21-0.74-0.31-1.25-0.31c-0.68,0-1.22,0.18-1.61,0.54
			c-0.39,0.36-0.59,0.86-0.59,1.49c0,0.62,0.19,1.11,0.57,1.47c0.38,0.37,0.89,0.55,1.53,0.55c0.53,0,0.97-0.13,1.34-0.39
			c0.37-0.26,0.61-0.61,0.71-1.05h0.55c-0.12,0.58-0.41,1.05-0.88,1.39c-0.46,0.34-1.04,0.51-1.72,0.51c-0.8,0-1.44-0.23-1.92-0.68
			c-0.48-0.45-0.72-1.05-0.72-1.81c0-0.77,0.24-1.38,0.73-1.83c0.49-0.44,1.15-0.67,2-0.67c0.67,0,1.22,0.15,1.65,0.44
			c0.43,0.3,0.68,0.71,0.77,1.23H252.61z"/>
		<path class="st7" d="M259.3,479.53c0,0.77-0.24,1.38-0.73,1.82c-0.49,0.44-1.16,0.67-2,0.67c-0.85,0-1.52-0.22-2-0.67
			c-0.49-0.44-0.73-1.05-0.73-1.82c0-0.77,0.24-1.38,0.73-1.83c0.49-0.44,1.15-0.67,2-0.67c0.85,0,1.52,0.22,2,0.67
			C259.05,478.15,259.3,478.76,259.3,479.53z M256.56,481.56c0.69,0,1.23-0.18,1.62-0.54c0.39-0.36,0.59-0.86,0.59-1.49
			c0-0.64-0.2-1.13-0.59-1.49c-0.39-0.36-0.93-0.54-1.62-0.54c-0.69,0-1.23,0.18-1.62,0.54c-0.39,0.36-0.59,0.86-0.59,1.49
			c0,0.63,0.2,1.13,0.59,1.49C255.33,481.38,255.87,481.56,256.56,481.56z"/>
		<path class="st7" d="M260.27,477.17h0.53v2.9c0,0.52,0.14,0.89,0.42,1.13c0.28,0.24,0.72,0.36,1.32,0.36
			c0.6,0,1.04-0.12,1.32-0.36c0.28-0.24,0.42-0.62,0.42-1.13v-2.9h0.52v3.03c0,0.59-0.2,1.04-0.59,1.35
			c-0.39,0.31-0.95,0.47-1.68,0.47c-0.74,0-1.3-0.16-1.68-0.47c-0.38-0.31-0.58-0.77-0.58-1.38V477.17z"/>
		<path class="st7" d="M266.03,481.9v-4.73h0.66l3.64,4.24v-4.24h0.5v4.73h-0.69l-3.61-4.24v4.24H266.03z"/>
		<path class="st7" d="M276.43,478.71c-0.1-0.39-0.32-0.69-0.64-0.9c-0.33-0.21-0.74-0.31-1.25-0.31c-0.68,0-1.22,0.18-1.61,0.54
			c-0.39,0.36-0.59,0.86-0.59,1.49c0,0.62,0.19,1.11,0.57,1.47c0.38,0.37,0.89,0.55,1.53,0.55c0.53,0,0.97-0.13,1.34-0.39
			c0.37-0.26,0.61-0.61,0.71-1.05h0.55c-0.12,0.58-0.41,1.05-0.88,1.39c-0.46,0.34-1.04,0.51-1.72,0.51c-0.8,0-1.44-0.23-1.92-0.68
			c-0.48-0.45-0.72-1.05-0.72-1.81c0-0.77,0.24-1.38,0.73-1.83c0.49-0.44,1.15-0.67,2-0.67c0.67,0,1.22,0.15,1.65,0.44
			c0.43,0.3,0.68,0.71,0.77,1.23H276.43z"/>
		<path class="st7" d="M277.94,481.9v-4.73h0.52v4.73H277.94z"/>
		<path class="st7" d="M279.72,481.9v-4.73h0.52v4.28h3.27v0.44H279.72z"/>
	</g>
	<polyline id="funny_A" class="st6" points="245.68,469.29 246.66,471.77 246.73,471.77 247.62,473.99 244.82,473.99 243.88,471.58 
		240.89,471.58 240.11,473.99 237.36,473.99 240.55,463.59 243.58,463.59 247.02,472.49 243.96,471.68 242.19,467.34 241.59,469.3 	
		"/>
	<path id="funny_R" class="st6" d="M272.84,473.99c-0.42-0.6-0.87-1.3-1.23-1.91c-0.36-0.62-0.65-1.16-0.89-1.64
		c-0.24-0.48-0.45-0.93-0.64-1.38c0.33-0.24,0.67-0.48,1.02-0.74c0.35-0.26,0.67-0.54,0.96-0.86c0.29-0.32,0.43-0.63,0.43-0.94
		c0-0.29-0.11-0.48-0.33-0.55c-0.22-0.07-0.54-0.11-0.97-0.11h-3.88l0.03-2.38h5.11c0.69,0,1.27,0.12,1.76,0.35
		c0.48,0.24,0.84,0.56,1.08,0.97c0.24,0.41,0.36,0.88,0.36,1.39c0,0.61-0.18,1.19-0.54,1.74c-0.36,0.55-0.93,1.08-1.73,1.59
		c0.45,0.85,0.89,1.59,1.31,2.21c0.42,0.62,1,1.38,1.73,2.26 M267.21,474.02v-10.55h2.77v10.55H267.21z"/>
	<g id="TM">
		<path class="st5" d="M282.91,463.71h1.45v0.21h-0.6v1.57h-0.24v-1.57h-0.6V463.71z"/>
		<path class="st5" d="M286.05,465.5v-1.05c0-0.05,0.01-0.28,0.01-0.45h-0.01l-0.5,1.5h-0.24l-0.5-1.5h-0.01
			c0,0.16,0.01,0.39,0.01,0.44v1.05h-0.23v-1.79h0.34l0.51,1.51h0l0.51-1.51h0.34v1.79H286.05z"/>
	</g>
</g>
</svg>
